<svg width="16" height="16" viewBox="0 0 16 16" fill="none" xmlns="http://www.w3.org/2000/svg">
<path fill-rule="evenodd" clip-rule="evenodd" d="M15.1663 11.9993V4.66602C15.1663 3.56145 14.2709 2.66602 13.1663 2.66602L2.83301 2.66603C1.72844 2.66603 0.833008 3.56146 0.833008 4.66603V11.9993C0.833008 13.1039 1.72844 13.9993 2.83301 13.9993L13.1663 13.9993C14.2709 13.9993 15.1663 13.1039 15.1663 11.9993ZM13.833 6.17232V11.9993C13.833 12.3675 13.5345 12.666 13.1663 12.666L2.83301 12.666C2.46482 12.666 2.16634 12.3675 2.16634 11.9993L2.16634 6.17223L6.87512 9.3742C7.55384 9.83573 8.44564 9.83573 9.12436 9.3742L13.833 6.17232ZM13.8254 4.56509C13.7768 4.24479 13.5002 3.99935 13.1663 3.99935L2.83301 3.99936C2.49916 3.99936 2.22262 4.24476 2.17394 4.56501L7.62487 8.27164C7.85111 8.42548 8.14837 8.42548 8.37461 8.27164L13.8254 4.56509Z" fill="white"/>
</svg>
