<svg width="40.000000" height="40.000000" viewBox="0 0 40 40" fill="none" xmlns="http://www.w3.org/2000/svg" xmlns:xlink="http://www.w3.org/1999/xlink">
	<desc>
			Created with Pixso.
	</desc>
	<defs>
		<clipPath id="clip2196_2206">
			<rect id="ic-chart" width="40.000000" height="40.000000" fill="white" fill-opacity="0"/>
		</clipPath>
	</defs>
	<g clip-path="url(#clip2196_2206)">
		<path id="Vector" d="M39.9951 17.5635C39.4727 13.1191 37.4346 8.92188 34.2568 5.74414C31.0801 2.56641 26.8828 0.52832 22.4375 0.00488281C22.2158 -0.0205078 21.9941 0.0488281 21.8271 0.197266C21.6611 0.345703 21.5654 0.558594 21.5654 0.78125L21.5654 7.58496C21.5654 8.0166 21.915 8.36621 22.3467 8.36621C22.7783 8.36621 23.1279 8.0166 23.1279 7.58496L23.1279 1.68066C30.9463 2.97266 37.0283 9.05566 38.3203 16.874L23.1279 16.874L23.1279 12.9746C23.1279 12.543 22.7783 12.1934 22.3467 12.1934C21.915 12.1934 21.5654 12.543 21.5654 12.9746L21.5654 17.6553C21.5654 18.0869 21.915 18.4365 22.3467 18.4365L39.2197 18.4365C39.4424 18.4365 39.6553 18.3408 39.8037 18.1738C39.9512 18.0078 40.0215 17.7852 39.9951 17.5635Z" fill="#7772F1" fill-opacity="1.000000" fill-rule="nonzero"/>
		<path id="Vector" d="M22.3467 9.45508C21.915 9.45508 21.5654 9.80469 21.5654 10.2363L21.5654 10.2568C21.5654 10.6885 21.915 11.0381 22.3467 11.0381C22.7783 11.0381 23.1279 10.6885 23.1279 10.2568L23.1279 10.2363C23.1279 9.80469 22.7783 9.45508 22.3467 9.45508Z" fill="#7772F1" fill-opacity="1.000000" fill-rule="nonzero"/>
		<path id="Vector" d="M18.4043 34.5918C15.251 34.5156 12.2666 33.4404 9.77246 31.4824C9.43262 31.2158 8.94238 31.2744 8.67578 31.6143C8.40918 31.9541 8.46777 32.4443 8.80762 32.7109C11.5684 34.8789 14.874 36.0693 18.3662 36.1543C18.373 36.1543 18.3799 36.1543 18.3857 36.1543C18.8086 36.1543 19.1562 35.8164 19.167 35.3916C19.1768 34.9609 18.8359 34.6025 18.4043 34.5918Z" fill="#7772F1" fill-opacity="1.000000" fill-rule="nonzero"/>
		<path id="Vector" d="M21.3936 35.1719C21.3428 34.7441 20.9541 34.4375 20.5254 34.4893L20.5088 34.4912C20.0811 34.542 19.7744 34.9307 19.8262 35.3594C19.873 35.7559 20.2109 36.0479 20.6006 36.0479C20.6318 36.0479 20.6631 36.0459 20.6943 36.042L20.7109 36.04C21.1396 35.9893 21.4453 35.6006 21.3936 35.1719Z" fill="#7772F1" fill-opacity="1.000000" fill-rule="nonzero"/>
		<path id="Vector" d="M37.0312 20.3125C37.0176 20.3125 37.0039 20.3125 36.9902 20.3135L19.6875 20.3135L19.6875 2.96875C19.6875 2.53711 19.3379 2.1875 18.9062 2.1875C13.8564 2.1875 9.1084 4.1543 5.53711 7.72461C1.9668 11.2959 0 16.0439 0 21.0938C0 26.1436 1.9668 30.8916 5.53711 34.4629C9.1084 38.0332 13.8564 40 18.9062 40C23.9561 40 28.7041 38.0332 32.2754 34.4629C35.8457 30.8916 37.8125 26.1436 37.8125 21.0938C37.8125 20.6621 37.4629 20.3125 37.0312 20.3125ZM18.9062 38.4375C9.34277 38.4375 1.5625 30.6572 1.5625 21.0938C1.5625 11.792 8.92285 4.17773 18.125 3.76758L18.125 21.0947C18.125 21.3555 18.2529 21.585 18.4482 21.7266C18.4482 21.7275 18.4482 21.7275 18.4482 21.7275L32.4736 31.8848C29.2939 35.875 24.3936 38.4375 18.9062 38.4375ZM33.3916 30.6211L21.3174 21.876L36.2324 21.876C36.0889 25.0957 35.0625 28.0889 33.3916 30.6211Z" fill="#7772F1" fill-opacity="1.000000" fill-rule="nonzero"/>
	</g>
</svg>
