<svg width="40.000000" height="32.000000" viewBox="0 0 40 32" fill="none" xmlns="http://www.w3.org/2000/svg" xmlns:xlink="http://www.w3.org/1999/xlink">
	<desc>
			Created with Pixso.
	</desc>
	<defs/>
	<path id="Vector" d="M35.7812 10.7314L35.7812 2.86133C35.7812 1.2832 34.4844 0 32.8906 0C32.2217 0 31.6055 0.226562 31.1152 0.605469L22.7549 3.70508C22.3506 3.85449 22.1465 4.30078 22.2979 4.7002C22.415 5.01074 22.7129 5.20312 23.0293 5.20312C23.1201 5.20312 23.2129 5.18652 23.3027 5.15332L30.0068 2.66797C30.0029 2.73145 30 2.7959 30 2.86133L30 11.8311C30 12.2578 30.3496 12.6035 30.7812 12.6035C31.2129 12.6035 31.5625 12.2578 31.5625 11.8311L31.5625 2.86133C31.5625 2.13574 32.1582 1.5459 32.8906 1.5459C33.623 1.5459 34.2188 2.13574 34.2188 2.86133L34.2188 28.3779C34.2188 29.1025 33.623 29.6924 32.8906 29.6924C32.1582 29.6924 31.5625 29.1025 31.5625 28.3779L31.5625 19.0215C31.5625 18.5947 31.2129 18.249 30.7812 18.249C30.3496 18.249 30 18.5947 30 19.0215L30 28.3779C30 28.4434 30.0029 28.5078 30.0068 28.5713L10.3125 21.2695L10.3125 9.96973L18.2422 7.0293C18.6465 6.87988 18.8516 6.43457 18.7002 6.03418C18.5488 5.63477 18.0986 5.43164 17.6943 5.58203L9.38965 8.66016L4.60938 8.66016C2.06738 8.66016 0 10.707 0 13.2227L0 18.0166C0 20.4834 1.9873 22.4971 4.46094 22.5752L7.90332 31.502C8.01855 31.8018 8.30859 32 8.63281 32L13.1641 32C13.4209 32 13.6621 31.875 13.8076 31.665C13.9531 31.4561 13.9854 31.1885 13.8945 30.9512L10.8789 23.1309L31.1152 30.6338C31.6055 31.0127 32.2217 31.2393 32.8906 31.2393C34.4844 31.2393 35.7812 29.9561 35.7812 28.3789L35.7812 20.5078C38.168 20.1348 40 18.085 40 15.6201C40 13.1543 38.168 11.1045 35.7812 10.7314ZM4.60938 21.0322C2.92969 21.0322 1.5625 19.6797 1.5625 18.0166L1.5625 13.2227C1.5625 11.5596 2.92969 10.207 4.60938 10.207L8.75 10.207L8.75 21.0322L5 21.0322L4.60938 21.0322ZM12.0293 30.4531L9.1709 30.4531L9.1709 30.4531L6.13477 22.5791L8.99316 22.5791L12.0293 30.4531ZM35.7812 18.9326L35.7812 12.3066C37.3018 12.6582 38.4375 14.0098 38.4375 15.6191C38.4375 17.2295 37.3018 18.5811 35.7812 18.9326Z" fill="#7772F1" fill-opacity="1.000000" fill-rule="nonzero"/>
</svg>
