<svg width="590.750000" height="526.000000" viewBox="0 0 590.75 526" fill="none" xmlns="http://www.w3.org/2000/svg" xmlns:xlink="http://www.w3.org/1999/xlink">
	<desc>
			Created with Pixso.
	</desc>
	<defs/>
	<path id="Path" d="M73.4414 305.62L155.011 378.926L191.214 526L250.23 511.675L240.346 501.14C240.346 501.14 238.075 279.96 142.301 244.445L73.4414 305.62Z" fill="#B3B7BC" fill-opacity="1.000000" fill-rule="nonzero"/>
	<rect id="Rectangle" x="28.378906" y="303.757812" rx="16.554642" width="92.020279" height="33.109283" fill="#00F0B5" fill-opacity="1.000000"/>
	<path id="Path" d="M103.897 336.867L44.8779 336.867" stroke="#1E212C" stroke-opacity="1.000000" stroke-width="1.500000" stroke-linejoin="round" stroke-linecap="round"/>
	<path id="Path" d="M79.1367 63.7695L79.1367 91.0342L112.801 99.3359L112.801 53.3262L79.1367 45.0244L79.1367 63.7695Z" fill="#D7DADD" fill-opacity="1.000000" fill-rule="nonzero"/>
	<path id="Path" d="M83.002 77.6104C82.7021 77.9854 82.6221 78.4893 82.7891 78.9395C82.9561 79.3887 83.3467 79.7168 83.8174 79.8027C85.7012 80.4609 89.0645 76.9814 91.3535 79.3545C91.3535 79.3545 92.2598 76.4863 98.3545 78.9736C104.45 81.46 102.771 77.0371 102.771 77.0371" stroke="#FFFFFF" stroke-opacity="1.000000" stroke-width="1.500000" stroke-linejoin="round" stroke-linecap="round"/>
	<path id="Oval" d="M98.1543 73.2031C98.6514 73.2031 99.0537 72.7979 99.0537 72.2998C99.0537 71.8008 98.6514 71.3965 98.1543 71.3965C97.6572 71.3965 97.2539 71.8008 97.2539 72.2998C97.2539 72.7979 97.6572 73.2031 98.1543 73.2031Z" fill="#1E212C" fill-opacity="1.000000" fill-rule="nonzero"/>
	<path id="Oval" d="M84.3311 73.2031C84.8281 73.2031 85.2305 72.7979 85.2305 72.2998C85.2305 71.8008 84.8281 71.3965 84.3311 71.3965C83.834 71.3965 83.4307 71.8008 83.4307 72.2998C83.4307 72.7979 83.834 73.2031 84.3311 73.2031Z" fill="#1E212C" fill-opacity="1.000000" fill-rule="nonzero"/>
	<path id="Path" d="M88.3828 77.6865L88.3828 63.7695L81.4336 63.7695" stroke="#1E212C" stroke-opacity="1.000000" stroke-width="1.500000" stroke-linejoin="round" stroke-linecap="round"/>
	<path id="Path" d="M99.8477 63.7695L92.8984 63.7695" stroke="#1E212C" stroke-opacity="1.000000" stroke-width="1.500000" stroke-linejoin="round" stroke-linecap="round"/>
	<path id="Path" d="M110.586 70.9004L110.586 75.7334C113.185 75.7334 115.291 73.6201 115.291 71.0137C115.291 70.8682 115.284 70.7256 115.271 70.584C115.008 67.6523 110.586 67.958 110.586 70.9004Z" fill="#E5E8ED" fill-opacity="1.000000" fill-rule="nonzero"/>
	<path id="Path" d="M110.586 75.7344C113.185 75.7344 115.291 73.6211 115.291 71.0137" stroke="#1E212C" stroke-opacity="1.000000" stroke-width="1.500000" stroke-linejoin="round" stroke-linecap="round"/>
	<path id="Path" d="M102.004 96.6738L112.8 99.3359" stroke="#1E212C" stroke-opacity="1.000000" stroke-width="1.500000" stroke-linejoin="round" stroke-linecap="round"/>
	<path id="Path" d="M88.3867 77.6982L91.4258 78.4473" stroke="#1E212C" stroke-opacity="1.000000" stroke-width="1.500000" stroke-linejoin="round" stroke-linecap="round"/>
	<path id="Path" d="M79.1367 74.6455C79.1367 74.6455 71.3154 91.4121 83.4277 96.7188C95.541 102.024 112.827 88.6338 110.583 73.2031" stroke="#FFFFFF" stroke-opacity="1.000000" stroke-width="1.500000" stroke-linejoin="round" stroke-linecap="round"/>
	<path id="Path" d="M77.8789 56.2871C77.8789 56.2871 80.5654 61.2842 89.9053 61.4912L89.9053 58.4092C94.0459 60.9561 98.832 62.2461 103.687 62.124L103.687 59.6826C103.687 59.6826 109.504 66.2383 104.851 71.3975" stroke="#FFFFFF" stroke-opacity="1.000000" stroke-width="1.500000" stroke-linejoin="round" stroke-linecap="round"/>
	<path id="Path" d="M92.0625 83.0713C94.0156 83.0713 95.5986 81.4824 95.5986 79.5234" stroke="#1E212C" stroke-opacity="1.000000" stroke-width="1.500000" stroke-linejoin="round" stroke-linecap="round"/>
	<path id="Path" d="M79.1416 69.9229C79.1416 69.9229 65.54 46.3643 80.3584 43.499C95.1758 40.6338 105.329 47.3193 105.329 47.3193C105.329 47.3193 127.737 51.8799 112.805 68.542" stroke="#FFFFFF" stroke-opacity="1.000000" stroke-width="1.500000" stroke-linejoin="round" stroke-linecap="round"/>
	<path id="Path" d="M50.9141 148.158L50.9141 221.911L155.051 247.59L155.051 165.449C155.051 136.324 135.232 110.961 107.042 104.01L107.042 104.01C93.5225 100.676 79.2256 103.763 68.2695 112.38C57.3135 120.998 50.9141 134.19 50.9141 148.158L50.9141 148.158Z" fill="#00F0B5" fill-opacity="1.000000" fill-rule="nonzero"/>
	<path id="Path" d="M50.9189 221.911C50.9189 221.911 32.8242 347.691 166.095 327.637L166.729 433.362L231.193 433.362L221.308 424.734C221.308 424.734 278.423 266.828 155.056 247.591L50.9189 221.911Z" fill="#D7DADD" fill-opacity="1.000000" fill-rule="nonzero"/>
	<path id="Path" d="M166.726 433.362L231.189 433.362" stroke="#1E212C" stroke-opacity="1.000000" stroke-width="1.500000" stroke-linejoin="round" stroke-linecap="round"/>
	<path id="Path" d="M50.9189 221.911C50.9189 221.911 32.8242 347.691 166.095 327.637L166.729 433.362" stroke="#1E212C" stroke-opacity="1.000000" stroke-width="1.500000" stroke-linejoin="round" stroke-linecap="round"/>
	<path id="Path" d="M0.75 433.14L155.007 433.14" stroke="#FFFFFF" stroke-opacity="1.000000" stroke-width="1.500000" stroke-linejoin="round" stroke-linecap="round"/>
	<path id="Path" d="M74.4395 336.754L74.4395 432.953" stroke="#FFFFFF" stroke-opacity="1.000000" stroke-width="1.500000" stroke-linejoin="round" stroke-linecap="round"/>
	<path id="Path" d="M73.4414 108.859C73.4414 108.859 30.2852 133.755 35.7852 193.605C41.2852 253.457 136 216.104 161.836 197.426C161.836 197.426 175.823 187.156 172.438 170.397L180.556 164.899L178.363 160.072L81.4395 175.133L85.2324 151.583" stroke="#FFFFFF" stroke-opacity="1.000000" stroke-width="1.500000" stroke-linejoin="round" stroke-linecap="round"/>
	<path id="Path" d="M54.8604 222.374C62.4375 234.096 84.5635 239.125 108.443 233.626C129.919 228.682 146.413 216.693 150.771 204.246C125.93 217.782 80.6465 233.581 54.8604 222.374Z" fill="#1E212C" fill-opacity="1.000000" fill-rule="nonzero"/>
	<path id="Path" d="M120.977 109.257L185.128 138.848C185.128 138.848 199.936 80.1729 217.281 77.0381C234.628 73.9023 234.503 75.7334 234.503 75.7334L233.52 80.3389L225.271 83.0713C225.271 83.0713 229.128 102.156 218.974 102.674C218.974 102.674 250.505 218.193 153.508 202.716" stroke="#FFFFFF" stroke-opacity="1.000000" stroke-width="1.500000" stroke-linejoin="round" stroke-linecap="round"/>
	<path id="Vector" d="M486.546 225.83L324.383 170.54L345.049 86.9248L519.351 93.2695L486.546 225.83Z" fill="#B3B7BC" fill-opacity="1.000000" fill-rule="nonzero"/>
	<path id="Vector" d="M397.842 350.232L217.949 224.696L324.383 170.426L486.546 225.829L397.842 350.232Z" fill="#E5E8ED" fill-opacity="1.000000" fill-rule="nonzero"/>
	<path id="Vector" d="M382.156 301.928L249.75 216.783L251.274 216.217L382.834 300.795L382.156 301.928Z" fill="#1E212C" fill-opacity="1.000000" fill-rule="nonzero"/>
	<path id="Vector" d="M400.789 277.285L269.512 205.283L270.811 204.49L401.806 276.096L400.789 277.285Z" fill="#1E212C" fill-opacity="1.000000" fill-rule="nonzero"/>
	<path id="Vector" d="M418.914 255.248L290.121 194.973L291.363 194.123L419.648 254.172L418.914 255.248Z" fill="#1E212C" fill-opacity="1.000000" fill-rule="nonzero"/>
	<path id="Vector" d="M437.379 232.475L307.965 182.85L309.32 182L438.396 231.229L437.379 232.475Z" fill="#1E212C" fill-opacity="1.000000" fill-rule="nonzero"/>
	<path id="Vector" d="M255.902 235.024L254.435 234.231L333.652 188.345L335.29 188.911L255.902 235.024Z" fill="#1E212C" fill-opacity="1.000000" fill-rule="nonzero"/>
	<path id="Vector" d="M289.841 257.685L288.43 256.948L359.855 197.126L361.324 197.579L289.841 257.685Z" fill="#1E212C" fill-opacity="1.000000" fill-rule="nonzero"/>
	<path id="Vector" d="M325.012 281.478L323.77 280.685L390.904 208.343L392.316 208.683L325.012 281.478Z" fill="#1E212C" fill-opacity="1.000000" fill-rule="nonzero"/>
	<path id="Vector" d="M361.097 305.384L360.137 304.591L427.385 222.505L428.627 222.958L361.097 305.384Z" fill="#1E212C" fill-opacity="1.000000" fill-rule="nonzero"/>
	<path id="Vector" d="M527.595 88.8506C527.425 88.7373 527.199 88.6807 526.974 88.6807L365.093 83.5254L365.036 83.5254L345.049 86.9248L350.639 87.1514L365.093 84.8281L525.054 89.9268L519.407 93.2695L519.012 94.9688L526.409 90.4365L490.159 238.293L486.658 225.66L327.263 171.39L325.625 172.239L485.755 226.963L489.426 240.955L396.825 371.533L398.858 348.76L397.842 350.232L395.753 373.176L219.981 241.975L219.305 225.66L217.949 224.696L218.739 242.654L395.753 375.045L490.78 241.238L527.877 89.6436C527.934 89.3604 527.82 89.0771 527.595 88.8506Z" fill="#FFFFFF" fill-opacity="1.000000" fill-rule="nonzero"/>
	<path id="Vector" d="M369.106 156.508C367.578 156.093 366.101 155.516 364.698 154.788C363.343 154.1 362.072 153.261 360.909 152.287C359.794 151.405 358.775 150.411 357.868 149.32C356.984 148.226 356.243 147.025 355.662 145.747L367.635 138.248C368.155 139.696 368.962 141.027 370.008 142.164C371.109 143.388 372.54 144.276 374.135 144.729C374.838 144.918 375.577 144.945 376.294 144.809C376.656 144.747 376.994 144.591 377.273 144.356C377.554 144.121 377.765 143.816 377.884 143.474C378.049 143.122 378.091 142.728 378.005 142.351C377.877 141.91 377.645 141.508 377.326 141.176C376.826 140.595 376.264 140.069 375.648 139.609C374.926 138.995 373.993 138.271 372.849 137.403C371.767 136.572 370.766 135.643 369.859 134.627C368.95 133.655 368.224 132.532 367.711 131.31C367.211 129.996 366.972 128.6 367.007 127.195C367.113 125.413 367.546 123.664 368.285 122.033C369.259 119.585 370.757 117.372 372.678 115.549C374.344 114 376.29 112.775 378.413 111.938C380.425 111.165 382.562 110.765 384.72 110.756C386.767 110.732 388.807 110.98 390.784 111.494C393.362 112.233 395.747 113.513 397.776 115.245C399.925 117.051 401.604 119.339 402.673 121.918L390.74 128.825C390.436 127.44 389.735 126.172 388.725 125.168C387.901 124.292 386.854 123.651 385.693 123.312C384.897 123.06 384.052 122.998 383.227 123.132C382.89 123.2 382.576 123.353 382.314 123.572C382.053 123.793 381.851 124.074 381.729 124.392C381.562 124.663 381.488 124.98 381.52 125.295C381.551 125.61 381.685 125.907 381.9 126.14C382.635 126.869 383.432 127.534 384.282 128.127C385.46 128.99 386.647 129.951 387.88 131.038C389.11 132.099 390.171 133.339 391.024 134.715C391.873 136.148 392.402 137.745 392.579 139.398C392.696 141.446 392.308 143.493 391.446 145.363C390.46 147.77 389 149.96 387.149 151.806C385.503 153.425 383.565 154.727 381.436 155.643C379.443 156.521 377.306 157.033 375.129 157.151C373.099 157.252 371.065 157.035 369.106 156.508Z" fill="#FFFFFF" fill-opacity="1.000000" fill-rule="nonzero"/>
	<path id="Vector" d="M408.43 117.428L434.729 124.759L429.637 137.031L415.392 133.077L413.826 136.846L427.161 140.56L422.485 152.062L408.984 148.332L407.29 152.444L422.412 156.644L417.32 168.917L390.111 161.345L408.43 117.428Z" fill="#FFFFFF" fill-opacity="1.000000" fill-rule="nonzero"/>
	<path id="Vector" d="M430.335 147.806C431.696 144.493 433.633 141.443 436.054 138.794C438.185 136.389 440.728 134.379 443.563 132.857C449.026 129.939 455.404 129.224 461.376 130.857C464.235 131.593 466.903 132.93 469.197 134.778C471.305 136.491 472.971 138.68 474.058 141.161C475.181 143.812 475.689 146.68 475.547 149.555C475.374 152.962 474.585 156.312 473.219 159.444C471.828 162.76 469.897 165.826 467.506 168.521C465.354 170.997 462.771 173.068 459.881 174.633C457.167 176.137 454.19 177.112 451.11 177.508C448.044 177.88 444.935 177.653 441.957 176.841C439.099 176.105 436.438 174.755 434.165 172.885C432.071 171.108 430.434 168.861 429.387 166.329C428.319 163.604 427.851 160.683 428.013 157.76C428.172 154.33 428.959 150.957 430.335 147.806ZM443.922 151.547C443.369 152.852 443.005 154.226 442.838 155.63C442.738 156.812 442.856 158.003 443.185 159.144C443.478 160.152 444.022 161.069 444.77 161.812C445.536 162.541 446.474 163.069 447.499 163.347C448.581 163.626 449.714 163.659 450.812 163.444C451.948 163.213 453.026 162.76 453.985 162.111C455.14 161.405 456.168 160.515 457.03 159.476C457.934 158.325 458.676 157.059 459.235 155.709C459.794 154.433 460.15 153.078 460.293 151.694C460.415 150.6 460.306 149.491 459.972 148.441C459.645 147.476 459.082 146.606 458.334 145.91C457.575 145.18 456.635 144.661 455.608 144.407C454.526 144.12 453.395 144.064 452.288 144.244C451.164 144.459 450.086 144.866 449.103 145.447C448.035 146.133 447.092 146.993 446.313 147.991C445.391 149.058 444.629 150.251 444.053 151.534L443.922 151.547Z" fill="#FFFFFF" fill-opacity="1.000000" fill-rule="nonzero"/>
	<path id="Vector" d="M338.053 49.5762L271.233 66.9951L258.395 17.4189L259.606 17.1025L272.13 65.46L337.737 48.3574L338.053 49.5762Z" fill="#E5E8ED" fill-opacity="1.000000" fill-rule="nonzero"/>
	<path id="Vector" d="M276.044 39.2793L283.905 37.2305L290.032 60.8916L282.172 62.9404L276.044 39.2793Z" fill="#E5E8ED" fill-opacity="1.000000" fill-rule="evenodd"/>
	<path id="Vector" d="M288.994 24.4766L296.855 22.4277L305.755 56.792L297.894 58.8418L288.994 24.4766Z" fill="#E5E8ED" fill-opacity="1.000000" fill-rule="evenodd"/>
	<path id="Vector" d="M305.067 12.4688L312.929 10.4199L323.725 52.1084L315.863 54.1572L305.067 12.4688Z" fill="#E5E8ED" fill-opacity="1.000000" fill-rule="evenodd"/>
	<path id="Vector" d="M465.81 387.064C465.806 394.229 467.89 401.238 471.804 407.23C475.719 413.223 481.294 417.936 487.843 420.79C494.393 423.646 501.631 424.517 508.668 423.299C515.705 422.08 522.233 418.824 527.45 413.932C532.667 409.039 536.345 402.724 538.03 395.762C539.717 388.8 539.338 381.495 536.94 374.747C534.543 367.998 530.231 362.1 524.536 357.777C518.842 353.455 512.012 350.896 504.887 350.418L504.887 387.064L465.81 387.064Z" fill="#00F0B5" fill-opacity="1.000000" fill-rule="nonzero"/>
	<path id="Vector" d="M461.846 382.799L500.922 382.799L500.922 346.113C500.135 346.05 499.3 346.026 498.481 346.026C493.669 346.026 488.904 346.978 484.458 348.826C480.012 350.674 475.973 353.383 472.57 356.798C469.168 360.213 466.47 364.267 464.63 368.729C462.79 373.189 461.844 377.971 461.846 382.799Z" fill="#D7DADD" fill-opacity="1.000000" fill-rule="nonzero"/>
	<path id="Vector" d="M544.777 237.579L586.333 223.727L575.713 191.794L568.102 187.876L532.225 199.835L544.777 237.579Z" fill="#B3B7BC" fill-opacity="1.000000" fill-rule="nonzero"/>
	<path id="Vector" d="M545.34 237.862L589.882 223.015C589.947 222.993 590.001 222.946 590.031 222.885C590.062 222.823 590.067 222.751 590.046 222.686L578.663 188.459C578.641 188.395 578.595 188.342 578.536 188.31L570.379 184.115C570.316 184.084 570.244 184.078 570.178 184.1L531.723 196.918C531.657 196.939 531.604 196.986 531.572 197.048C531.542 197.11 531.537 197.182 531.559 197.247L545.013 237.703C545.023 237.735 545.041 237.765 545.063 237.79C545.086 237.815 545.112 237.837 545.144 237.852C545.174 237.866 545.207 237.875 545.24 237.877C545.274 237.879 545.309 237.874 545.34 237.862ZM589.471 222.603L545.443 237.278L532.153 197.317L570.233 184.624L578.204 188.725L589.471 222.603Z" fill="#FFFFFF" fill-opacity="1.000000" fill-rule="nonzero"/>
	<path id="Vector" d="M538.992 205.957L575.711 193.717C575.776 193.695 575.83 193.648 575.861 193.587C575.892 193.525 575.897 193.453 575.875 193.388C575.854 193.322 575.807 193.268 575.745 193.237C575.684 193.206 575.612 193.201 575.547 193.223L538.828 205.463C538.763 205.484 538.708 205.531 538.678 205.593C538.646 205.655 538.642 205.727 538.663 205.792C538.686 205.857 538.732 205.912 538.794 205.942C538.855 205.974 538.927 205.979 538.992 205.957Z" fill="#FFFFFF" fill-opacity="1.000000" fill-rule="nonzero"/>
	<path id="Vector" d="M540.95 211.836L577.669 199.596C577.734 199.574 577.788 199.527 577.819 199.466C577.85 199.404 577.855 199.332 577.833 199.267C577.812 199.201 577.765 199.146 577.703 199.116C577.642 199.085 577.57 199.08 577.505 199.102L540.786 211.342C540.721 211.363 540.666 211.41 540.636 211.472C540.604 211.534 540.6 211.605 540.621 211.671C540.644 211.736 540.69 211.791 540.752 211.821C540.813 211.853 540.885 211.857 540.95 211.836Z" fill="#FFFFFF" fill-opacity="1.000000" fill-rule="nonzero"/>
	<path id="Vector" d="M542.888 217.672L579.606 205.432C579.672 205.41 579.726 205.363 579.757 205.302C579.787 205.24 579.793 205.168 579.771 205.103C579.749 205.037 579.702 204.982 579.641 204.952C579.579 204.921 579.508 204.916 579.442 204.938L542.724 217.178C542.658 217.199 542.604 217.246 542.573 217.308C542.542 217.37 542.537 217.441 542.559 217.507C542.581 217.572 542.628 217.627 542.689 217.657C542.751 217.688 542.822 217.693 542.888 217.672Z" fill="#FFFFFF" fill-opacity="1.000000" fill-rule="nonzero"/>
	<path id="Vector" d="M544.836 223.529L581.555 211.289C581.62 211.268 581.674 211.221 581.705 211.159C581.735 211.098 581.74 211.025 581.719 210.96C581.709 210.928 581.692 210.896 581.67 210.87C581.647 210.844 581.62 210.822 581.59 210.808C581.559 210.792 581.525 210.783 581.491 210.78C581.457 210.778 581.423 210.783 581.391 210.795L544.672 223.035C544.639 223.045 544.607 223.062 544.581 223.084C544.555 223.106 544.533 223.134 544.518 223.165C544.501 223.195 544.492 223.229 544.489 223.264C544.486 223.299 544.491 223.333 544.502 223.366C544.525 223.432 544.573 223.485 544.636 223.516C544.698 223.547 544.77 223.552 544.836 223.529Z" fill="#FFFFFF" fill-opacity="1.000000" fill-rule="nonzero"/>
	<path id="Vector" d="M546.785 229.388L583.504 217.147C583.536 217.137 583.566 217.12 583.592 217.098C583.618 217.075 583.639 217.048 583.654 217.018C583.669 216.987 583.679 216.953 583.681 216.919C583.684 216.886 583.679 216.851 583.668 216.818C583.658 216.786 583.642 216.755 583.619 216.729C583.597 216.702 583.569 216.681 583.539 216.666C583.508 216.65 583.475 216.642 583.44 216.639C583.406 216.637 583.372 216.642 583.34 216.653L546.621 228.894C546.588 228.903 546.558 228.92 546.53 228.942C546.504 228.965 546.482 228.992 546.467 229.023C546.451 229.054 546.441 229.088 546.438 229.122C546.437 229.157 546.44 229.191 546.451 229.225C546.475 229.29 546.522 229.344 546.585 229.374C546.647 229.405 546.72 229.409 546.785 229.388Z" fill="#FFFFFF" fill-opacity="1.000000" fill-rule="nonzero"/>
	<path id="Vector" d="M572.415 190.739L578.405 188.742C578.462 188.714 578.507 188.665 578.531 188.606C578.556 188.547 578.558 188.481 578.537 188.421C578.518 188.36 578.476 188.309 578.421 188.276C578.366 188.243 578.302 188.231 578.239 188.242L572.495 190.157L570.409 184.208C570.384 184.145 570.336 184.092 570.273 184.062C570.212 184.032 570.142 184.025 570.075 184.045C570.012 184.069 569.959 184.117 569.93 184.18C569.9 184.241 569.896 184.312 569.918 184.378L572.086 190.574C572.109 190.639 572.156 190.692 572.218 190.723C572.279 190.754 572.35 190.76 572.415 190.739Z" fill="#FFFFFF" fill-opacity="1.000000" fill-rule="nonzero"/>
</svg>
