<svg width="175.484375" height="43.432617" viewBox="0 0 175.484 43.4326" fill="none" xmlns="http://www.w3.org/2000/svg" xmlns:xlink="http://www.w3.org/1999/xlink">
	<desc>
			Created with Pixso.
	</desc>
	<defs/>
	<path id="Vector" d="M167.608 43.4326L7.87598 43.4326C3.54395 43.4326 0 39.8906 0 35.5625L0 7.87012C0 3.54102 3.54395 0 7.87598 0L167.608 0C171.94 0 175.484 3.54102 175.484 7.87012L175.484 35.5625C175.484 39.8906 171.94 43.4326 167.608 43.4326Z" fill="#FC5A5A" fill-opacity="1.000000" fill-rule="nonzero"/>
	<path id="Vector" d="M49.3213 17.1162C49.3213 16.624 49.2725 16.1318 49.2227 15.6406C49.0752 13.5254 48.8291 11.1152 47.4512 9.44238C46.2695 8.0166 44.3994 7.67188 42.6758 7.47559C40.4609 7.22949 38.2461 7.08203 36.0312 6.9834C31.502 6.78613 27.0225 6.88477 22.4941 7.03223C20.1807 7.08203 17.8672 7.13086 15.5537 7.32715C12.6982 7.57324 9.79492 7.9668 8.46582 10.8203C7.28418 13.3779 7.43164 16.5752 7.43164 19.3291C7.43164 21.7891 7.43164 24.248 7.53027 26.707C7.67773 29.9043 7.8252 34.0361 11.2715 35.4141C13.0928 36.1514 15.3076 36.3477 17.2764 36.4463C19.3438 36.5938 21.4111 36.5449 23.5283 36.5938C27.9092 36.6436 32.2402 36.4961 36.6221 36.4463C39.6738 36.3975 42.7744 36.3477 45.6787 35.3643C48.1895 34.5283 48.8291 31.8232 49.1738 29.4619C49.5186 27.1504 49.4199 24.7402 49.4199 22.4277C49.3711 20.5586 49.3711 18.8379 49.3213 17.1162Z" fill="#FFFFFF" fill-opacity="1.000000" fill-rule="nonzero"/>
	<path id="Vector" d="M34.998 21.6904C31.3555 19.5264 27.7617 17.46 24.1191 15.2959C24.1191 19.5752 24.1191 23.8057 24.1191 28.0352C27.7617 25.9199 31.3555 23.8057 34.998 21.6904Z" fill="#FC5A5A" fill-opacity="1.000000" fill-rule="nonzero"/>
	<path id="SUBSCRIBE" d="M65.1592 23.2559C65.1592 22.624 64.9346 22.1367 64.4873 21.7939Q63.8242 21.2803 62.085 20.7568Q60.3447 20.2334 59.3164 19.5908Q58.0107 18.7715 57.5713 17.6211Q57.3496 17.0381 57.3496 16.3711Q57.3496 15.5908 57.6338 14.9346Q57.9834 14.127 58.7627 13.5059Q58.8145 13.4648 58.8682 13.4258Q60.2686 12.3799 62.4502 12.3799Q63.9531 12.3799 65.1299 12.9326C65.9141 13.3018 66.5303 13.8291 66.9785 14.5137Q67.2725 14.96 67.4385 15.4492Q67.6504 16.0771 67.6504 16.7754L65.1592 16.7754Q65.1592 15.9414 64.7686 15.3779Q64.6318 15.1816 64.4473 15.0176Q63.7451 14.375 62.4307 14.375C61.6133 14.375 60.9775 14.5498 60.5225 14.8994Q60.2695 15.0957 60.1123 15.3516Q59.8506 15.7754 59.8506 16.3613C59.8506 16.8877 60.0938 17.3291 60.582 17.6846Q61.3135 18.208 62.9941 18.7119Q64.6748 19.2061 65.6934 19.8477C66.3721 20.2695 66.8691 20.7568 67.1855 21.3105C67.502 21.8564 67.6602 22.499 67.6602 23.2363Q67.6602 24.2012 67.2617 24.9551Q66.918 25.6064 66.2764 26.1016Q64.9023 27.1582 62.5391 27.1582C61.498 27.1582 60.5391 26.9678 59.6621 26.585Q58.415 26.0283 57.6914 25.0742L57.6904 25.0723Q57.6572 25.0293 57.626 24.9854Q57.4219 24.6973 57.2754 24.3828Q56.9043 23.585 56.9043 22.6143L59.4053 22.6143Q59.4053 23.4756 59.8066 24.0635Q59.9756 24.3115 60.2158 24.5107Q61.0264 25.1826 62.5391 25.1826C63.4092 25.1826 64.0615 25.0078 64.4971 24.6592C64.9385 24.3037 65.1592 23.8359 65.1592 23.2559ZM103.358 23.2559Q103.358 22.6465 103.08 22.2158Q102.926 21.9775 102.687 21.7939C102.245 21.4521 101.444 21.1064 100.284 20.7568C99.124 20.4082 98.2012 20.0195 97.5156 19.5908C96.2041 18.7676 95.5488 17.6943 95.5488 16.3711C95.5488 15.2119 96.0195 14.2568 96.9619 13.5059C97.9111 12.7549 99.1406 12.3799 100.649 12.3799C101.651 12.3799 102.545 12.5645 103.329 12.9326C104.113 13.3018 104.729 13.8291 105.178 14.5137C105.626 15.1924 105.85 15.9463 105.85 16.7754L103.358 16.7754Q103.358 15.9414 102.968 15.3779Q102.831 15.1816 102.646 15.0176C102.179 14.5898 101.507 14.375 100.63 14.375C99.8125 14.375 99.1768 14.5498 98.7217 14.8994Q98.4688 15.0957 98.3115 15.3516Q98.0498 15.7754 98.0498 16.3613C98.0498 16.8877 98.2939 17.3291 98.7812 17.6846C99.2686 18.0342 100.073 18.376 101.193 18.7119C102.313 19.041 103.214 19.4199 103.893 19.8477C104.571 20.2695 105.068 20.7568 105.385 21.3105C105.701 21.8564 105.859 22.499 105.859 23.2363Q105.859 24.2012 105.461 24.9551Q105.117 25.6064 104.476 26.1016C103.56 26.8057 102.313 27.1582 100.738 27.1582C99.6973 27.1582 98.7383 26.9678 97.8623 26.585C96.9922 26.1973 96.3135 25.6631 95.8252 24.9854C95.3438 24.3066 95.1035 23.5166 95.1035 22.6143L97.6045 22.6143C97.6045 23.4307 97.875 24.0635 98.415 24.5107C98.9561 24.959 99.7305 25.1826 100.738 25.1826C101.608 25.1826 102.261 25.0078 102.696 24.6592C103.138 24.3037 103.358 23.8359 103.358 23.2559ZM119.038 22.2783C118.893 23.8125 118.326 25.0117 117.337 25.874C116.349 26.7305 115.034 27.1582 113.393 27.1582C112.246 27.1582 111.234 26.8887 110.357 26.3486C109.487 25.8018 108.815 25.0273 108.341 24.0264C107.866 23.0254 107.619 21.8633 107.6 20.54L107.6 19.1963C107.6 17.8398 107.84 16.6445 108.321 15.6104C108.803 14.5762 109.491 13.7793 110.388 13.2197C111.29 12.6602 112.332 12.3799 113.512 12.3799Q115.59 12.3799 116.961 13.3643L116.961 13.3643Q117.161 13.5088 117.347 13.6738C118.316 14.5371 118.88 15.7549 119.038 17.3291L116.546 17.3291C116.428 16.2949 116.125 15.5508 115.637 15.0967C115.155 14.6357 114.447 14.4053 113.512 14.4053C112.424 14.4053 111.587 14.8037 111 15.6006C110.42 16.3906 110.124 17.5527 110.11 19.0879L110.11 20.3613C110.11 21.916 110.388 23.1016 110.941 23.918C111.501 24.7344 112.318 25.1426 113.393 25.1426C114.375 25.1426 115.113 24.9229 115.607 24.4814C116.102 24.04 116.414 23.3057 116.546 22.2783L119.038 22.2783ZM80.3838 12.5771L80.3838 22.1895C80.3838 23.7168 79.8926 24.9287 78.9102 25.8242Q78.7256 25.9932 78.5244 26.1406Q77.1377 27.1582 75.0059 27.1582Q72.7549 27.1582 71.3477 26.0684Q71.21 25.9619 71.0811 25.8447Q70.7275 25.5225 70.46 25.1406L70.46 25.1406Q69.6279 23.9512 69.6279 22.1797L69.6279 12.5771L72.1191 12.5771L72.1191 22.1992C72.1191 23.1611 72.3623 23.8955 72.8506 24.4023Q72.9004 24.4541 72.9531 24.502L72.9541 24.5029Q73.6797 25.1631 75.0059 25.1631Q76.373 25.1631 77.0928 24.4805Q77.8926 23.7217 77.8926 22.1201L77.8926 12.5771L80.3838 12.5771ZM83.0625 26.9609L83.0625 12.5771L87.9961 12.5771C89.624 12.5771 90.8623 12.9033 91.7129 13.5557C92.5625 14.207 92.9883 15.1787 92.9883 16.4697Q92.9883 17.0645 92.7939 17.5879Q92.667 17.9336 92.4541 18.248C92.0986 18.7744 91.5781 19.1826 90.8926 19.4727C91.6699 19.6836 92.2695 20.082 92.6914 20.668C93.1201 21.248 93.334 21.9453 93.334 22.7627Q93.334 24.252 92.6279 25.2334Q92.374 25.5869 92.0293 25.874C91.166 26.5986 89.9268 26.9609 88.3125 26.9609L83.0625 26.9609ZM126.57 21.4189L123.783 21.4189L123.783 26.9609L121.281 26.9609L121.281 12.5771L126.344 12.5771C128.004 12.5771 129.286 12.9492 130.189 13.6934C131.092 14.4375 131.543 15.5146 131.543 16.9238C131.543 17.8857 131.31 18.6924 130.842 19.3447C130.38 19.9893 129.734 20.4873 128.904 20.8359L132.137 26.832L132.137 26.9609L129.457 26.9609L126.57 21.4189ZM136.556 26.9609L134.064 26.9609L134.064 12.5771L136.556 12.5771L136.556 26.9609ZM139.63 26.9609L139.63 12.5771L144.563 12.5771C146.191 12.5771 147.43 12.9033 148.28 13.5557C149.131 14.207 149.556 15.1787 149.556 16.4697C149.556 17.1279 149.378 17.7207 149.021 18.248C148.666 18.7744 148.146 19.1826 147.46 19.4727C148.237 19.6836 148.837 20.082 149.259 20.668C149.688 21.248 149.901 21.9453 149.901 22.7627C149.901 24.1123 149.467 25.1494 148.597 25.874C147.733 26.5986 146.494 26.9609 144.88 26.9609L139.63 26.9609ZM160.815 20.54L154.904 20.54L154.904 24.9648L161.814 24.9648L161.814 26.9609L152.402 26.9609L152.402 12.5771L161.745 12.5771L161.745 14.5928L154.904 14.5928L154.904 18.5635L160.815 18.5635L160.815 20.54ZM85.5635 18.6328L88.0156 18.6328Q89.1816 18.6328 89.834 18.1094C90.2764 17.7539 90.4971 17.2529 90.4971 16.6084C90.4971 15.8965 90.293 15.3828 89.8838 15.0664Q89.2812 14.5928 87.9961 14.5928L85.5635 14.5928L85.5635 18.6328ZM123.783 19.4131L126.354 19.4131C127.197 19.4131 127.855 19.2031 128.33 18.7812C128.805 18.3535 129.042 17.7705 129.042 17.0322C129.042 16.2617 128.821 15.666 128.38 15.2451C127.945 14.8232 127.292 14.6055 126.423 14.5928L123.783 14.5928L123.783 19.4131ZM142.131 18.6328L144.583 18.6328C145.36 18.6328 145.967 18.459 146.402 18.1094C146.844 17.7539 147.064 17.2529 147.064 16.6084C147.064 15.8965 146.86 15.3828 146.451 15.0664C146.05 14.751 145.42 14.5928 144.563 14.5928L142.131 14.5928L142.131 18.6328ZM85.5635 20.4707L85.5635 24.9648L88.3418 24.9648C89.126 24.9648 89.7393 24.7705 90.1807 24.3828C90.6221 23.9941 90.8428 23.4541 90.8428 22.7627Q90.8428 21.667 90.2959 21.0947Q89.7227 20.4961 88.5488 20.4707L85.5635 20.4707ZM142.131 20.4707L142.131 24.9648L144.909 24.9648Q146.086 24.9648 146.748 24.3828Q146.927 24.2256 147.057 24.0352Q147.41 23.5205 147.41 22.7627C147.41 21.2676 146.646 20.5029 145.117 20.4707L142.131 20.4707Z" fill="#FFFFFF" fill-opacity="1.000000" fill-rule="evenodd"/>
</svg>
