<svg width="40.000000" height="40.000000" viewBox="0 0 40 40" fill="none" xmlns="http://www.w3.org/2000/svg" xmlns:xlink="http://www.w3.org/1999/xlink">
	<desc>
			Created with Pixso.
	</desc>
	<defs/>
	<path id="Vector" d="M36.875 0L3.125 0C1.40234 0 0 1.40234 0 3.125L0 27.6631C0 29.3857 1.40234 30.7881 3.125 30.7881L15.3906 30.7881L15.3906 34.709C13.0986 34.9326 11.3018 36.8691 11.3018 39.2188C11.3018 39.6504 11.6523 40 12.083 40L27.917 40C28.3486 40 28.6982 39.6504 28.6982 39.2188C28.6982 36.8164 26.8184 34.8457 24.4531 34.6973L24.4531 30.7881L28.0986 30.7881C28.5303 30.7881 28.8799 30.4375 28.8799 30.0068C28.8799 29.5752 28.5303 29.2256 28.0986 29.2256L3.125 29.2256C2.26367 29.2256 1.5625 28.5244 1.5625 27.6631L1.5625 3.125C1.5625 2.26367 2.26367 1.5625 3.125 1.5625L36.875 1.5625C37.7363 1.5625 38.4375 2.26367 38.4375 3.125L38.4375 27.6631C38.4375 28.5244 37.7363 29.2256 36.875 29.2256L33.958 29.2256C33.5273 29.2256 33.1768 29.5752 33.1768 30.0068C33.1768 30.4375 33.5273 30.7881 33.958 30.7881L36.875 30.7881C38.5977 30.7881 40 29.3857 40 27.6631L40 3.125C40 1.40137 38.5977 0 36.875 0ZM16.9531 30.7881L22.8906 30.7881L22.8906 34.6875L16.9531 34.6875L16.9531 30.7881ZM24.167 36.25C25.5332 36.25 26.6875 37.1787 27.0312 38.4375L12.9688 38.4375C13.3125 37.1787 14.4668 36.25 15.833 36.25L24.167 36.25Z" fill="#7772F1" fill-opacity="1.000000" fill-rule="nonzero"/>
</svg>
